<?xml version="1.0" encoding="UTF-8"?>
<svg id="Layer_1" data-name="Layer 1" xmlns="http://www.w3.org/2000/svg" viewBox="0 0 1315.46 404.6">
  <defs>
    <style>
      .cls-1 {
        fill: #027bee;
      }

      .cls-2 {
        fill: #fff;
      }

      .cls-3 {
        fill: #1c2b33;
      }
    </style>
  </defs>
  <g>
    <path class="cls-3" d="m557.04,266.87v25.96h-112.96V93.14h110.11v25.96h-81.3v57.34h75.02v25.96h-75.02v64.47h84.15Z"/>
    <path class="cls-3" d="m610.09,93.14v199.68h-25.96V93.14h25.96Z"/>
    <path class="cls-3" d="m786.07,220.65c0,41.65-32.23,75.88-75.88,75.88s-75.88-34.23-75.88-75.88,32.23-75.88,75.88-75.88,75.88,34.23,75.88,75.88Zm-26.53,0c0-29.67-20.82-51.35-49.35-51.35s-49.07,21.68-49.07,51.35,20.54,51.06,49.07,51.06,49.35-21.68,49.35-51.06Z"/>
    <path class="cls-3" d="m951.89,148.2v199.68h-25.96v-75.31c-10.84,13.69-27.39,23.96-52.49,23.96-45.07,0-72.17-37.94-72.17-75.88s27.1-75.88,72.17-75.88c25.1,0,41.65,10.27,52.49,23.68v-20.25h25.96Zm-25.96,72.46c0-28.53-18.26-51.35-49.92-51.35-29.95,0-47.92,22.25-47.92,51.35s17.97,51.06,47.92,51.06c31.67,0,49.92-22.54,49.92-51.06Z"/>
    <path class="cls-3" d="m1110.11,148.2v144.63h-25.96v-19.97c-8.56,12.84-22.82,23.68-44.5,23.68-32.52,0-55.63-27.1-55.63-57.62v-90.71h25.96v83.01c0,20.54,8.56,40.51,35.66,40.51s38.51-23.39,38.51-40.51v-83.01h25.96Z"/>
    <path class="cls-3" d="m1141.12,107.69c0-7.99,6.56-14.83,14.83-14.83s14.83,6.85,14.83,14.83-6.56,14.83-14.83,14.83-14.83-6.56-14.83-14.83Zm1.71,40.51h26.24v144.63h-26.24v-144.63Z"/>
    <path class="cls-3" d="m1315.46,205.54v87.29h-25.96v-19.97c-6.56,11.12-24.53,23.68-47.35,23.68-27.39,0-51.35-16.54-51.35-42.5,0-45.36,55.06-46.5,75.31-46.5h23.39c0-21.97-4.56-39.08-34.52-39.08-15.12,0-31.09,7.7-37.37,12.84l-18.26-13.98c15.97-14.55,37.94-22.54,60.76-22.54,41.65,0,55.34,26.24,55.34,60.76Zm-25.96,22.25h-9.98c-26.81,0-61.9-.29-61.9,25.1,0,11.12,7.13,22.54,30.24,22.54,24.82,0,39.94-17.4,41.65-23.96v-23.68Z"/>
  </g>
  <rect class="cls-2" x="67.25" y="111.28" width="257.79" height="144.11"/>
  <circle class="cls-1" cx="196.15" cy="196.15" r="196.15"/>
  <rect class="cls-2" x="28.82" y="89.55" width="334.65" height="187.57" rx="22.95" ry="22.95"/>
  <path class="cls-2" d="m75.17,276.51h109.73s.04.05.02.08l-89.86,123.3c-7.35,10.09-19.93,2.94-19.93-11.32v-112.01s.01-.04.03-.04Z"/>
  <rect class="cls-1" x="67.85" y="163.5" width="11.21" height="46.44" rx="5.6" ry="5.6"/>
  <rect class="cls-1" x="101.48" y="145.09" width="11.21" height="83.26" rx="5.37" ry="5.37"/>
  <rect class="cls-1" x="135.1" y="121.87" width="12.81" height="129.7" rx="5.99" ry="5.99"/>
  <rect class="cls-1" x="170.33" y="145.09" width="12.81" height="83.26" rx="5.99" ry="5.99"/>
  <rect class="cls-1" x="205.56" y="163.5" width="12.81" height="46.44" rx="6.4" ry="6.4"/>
  <rect class="cls-1" x="240.78" y="145.09" width="12.81" height="83.26" rx="6.4" ry="6.4"/>
  <rect class="cls-1" x="276.01" y="121.87" width="12.81" height="129.7" rx="6.4" ry="6.4"/>
  <rect class="cls-1" x="311.24" y="145.09" width="12.81" height="83.26" rx="6.4" ry="6.4"/>
</svg>