<?xml version="1.0" encoding="utf-8" ?>
<svg xmlns="http://www.w3.org/2000/svg" xmlns:xlink="http://www.w3.org/1999/xlink" width="1024" height="1023">
	<path fill="#3D2723" transform="scale(1.6 1.6)" d="M318.243 73.9254C373.366 70.7424 422.145 118.21 425.244 172.448C428.724 233.341 387.521 287.107 325.173 290.435C325.404 311.164 324.779 331.936 325.345 352.656C330.283 352.989 335.337 352.794 340.286 352.793L432.606 352.791C448.822 352.788 478.519 348.873 490.16 361.181C499.505 371.06 497.592 384.963 497.237 397.516C506.786 397.375 530.047 396.284 538.512 398.18C566.647 404.484 563.131 431.627 561.712 452.992L560.533 473.389C559.98 482.602 560.525 495.482 558.069 504.199C554.552 516.681 541.133 524.428 528.827 524.706C510.225 525.126 491.511 524.696 472.899 524.709L457.062 524.789C427.686 525.06 419.9 514.642 418.439 484.532L417.354 456.766C415.991 413.086 413.422 397.392 463.43 397.427L486.537 397.29L486.687 380.295C486.68 362.079 470.592 363.421 457.085 363.428L325.237 363.44C325.209 374.63 324.657 386.127 325.544 397.273C338.231 398.36 358.263 395.655 369.499 398.416C390.541 403.586 392.718 420.7 391.729 438.392L388.864 482.831C387.83 498.105 387.158 516.832 369.444 523.095C360.301 526.328 334.801 524.396 323.516 524.877C311.554 524.414 282.175 526.377 272.365 523.64C248.573 517.002 251.23 492.077 249.792 473.404C247.871 448.481 236.788 405.919 270.315 398.153C276.321 396.762 283.145 397.396 289.294 397.403L314.685 397.526L314.655 363.532C296.728 363.223 278.765 363.44 260.834 363.441L173.894 363.416C150.826 363.443 153.439 379.319 153.761 397.278C171.309 398.015 199.057 393.805 212.519 405.288C224.625 415.613 222.392 430.197 222.223 444.189C222.063 457.561 222.721 489.819 220.163 501.475C214.794 525.933 192.852 524.719 174.181 524.729L117.726 524.724C101.937 524.711 86.9814 521.26 82.0675 503.128C80.9808 499.119 81.1177 494.63 80.8651 490.498C79.7326 471.971 78.6973 453.363 77.9217 434.821C76.0773 390.731 112.092 398.293 142.698 397.294C142.999 385.799 140.522 370.615 149.49 361.695C159.515 351.726 170.956 352.773 184.016 352.779L314.597 352.812C315.156 332.073 313.581 311.05 314.994 290.372C259.331 286.622 217.11 241.639 215.048 186.054C212.794 125.262 257.153 76.1234 318.243 73.9254ZM512.674 407.656L469.988 407.681C454.992 407.679 427.129 404.275 427.446 426.928L427.455 427.505C440.325 426.913 453.519 427.037 466.406 427.41C485.157 427.04 503.953 427.3 522.709 427.306C531.923 427.309 542.432 428.127 551.449 426.584C547.949 405.045 529.839 407.774 512.674 407.656ZM126.491 407.659C109.954 407.663 90.1803 405.816 88.5557 427.446L173.281 427.318C186.074 427.316 198.901 427.508 211.689 427.168C208.792 404.259 188.577 407.685 171.636 407.682L126.491 407.659ZM343.52 407.661L298.333 407.683C280.336 407.683 261.56 403.984 257.139 427.18C269.198 427.486 283.205 427.866 295.156 427.028L381.602 426.579C378.617 404.462 360.775 407.906 343.52 407.661Z"/>
	<path fill="#DA1B31" transform="scale(1.6 1.6)" d="M125.823 437.649C135.428 437.918 145.063 437.764 154.672 437.763L211.577 437.817C210.454 452.083 210.746 468.616 209.991 483.488C208.566 511.575 203.374 513.707 175 513.821C159.352 513.64 143.685 513.748 128.035 513.752C95.4727 513.762 93.9468 513.463 91.668 483.261C90.5302 468.181 89.7719 453.147 89.0735 438.042C100.74 438.359 114.112 437.876 125.823 437.649Z"/>
	<path fill="#DA1B31" transform="scale(1.6 1.6)" d="M427.492 437.536L510.141 437.775C523.821 437.77 537.536 437.401 551.207 437.786C550.592 450.6 550.186 496.332 543.44 505.973C532.691 518.15 490.743 513.792 474.894 513.786C466.385 513.783 453.026 514.547 445.125 513.122C429.533 510.31 430.841 493.696 429.893 481.499C428.758 466.907 427.645 452.169 427.492 437.536Z"/>
	<path fill="#55A0FE" transform="scale(1.6 1.6)" d="M258.301 437.004C265.417 436.72 272.572 436.864 279.694 436.862L353.594 436.954C362.744 436.972 371.833 436.821 380.984 437.152C379.804 450.23 379.208 499.025 372.26 507.451C361.938 517.694 340.681 514.513 327.382 514.516C312.982 514.52 291.092 515.364 277.001 513.476C259.034 511.069 261.575 487.559 260.532 474.508C259.867 466.192 256.56 444.854 257.686 437.37L258.301 437.004Z"/>
	<path fill="#D8E9FE" transform="scale(1.6 1.6)" d="M318.624 83.8972C336.139 83.251 355.427 89.0983 370.255 98.2724C450.664 148.022 415.181 278.91 321.923 279.725C246.791 280.293 201.895 198.181 237.397 133.154C253.302 104.021 285.685 85.1366 318.624 83.8972Z"/>
	<path fill="#3D2723" transform="scale(1.6 1.6)" d="M313.115 244.808C317.346 244.756 324.899 243.735 328.596 245.359C335.228 248.272 332.693 253.727 327.261 255.702C307.938 259.942 303.141 246.656 313.115 244.808Z"/>
	<path fill="#3D2723" transform="scale(1.6 1.6)" d="M316.261 110.107C337.738 107.475 357.478 123.99 359.409 145.421C359.983 151.789 359.524 158.464 359.519 164.862C359.495 193.554 362.962 225.792 324.451 228.983C312.941 229.24 305.597 229.212 295.899 222.069C278.069 208.935 281.102 192.76 281.076 173.337C281.064 164.079 280.172 148.729 281.876 140.26C285.204 123.713 299.995 112.405 316.261 110.107Z"/>
	<path fill="#2F70AC" transform="scale(1.6 1.6)" d="M290.497 153.69C310.094 153.93 329.637 154.183 349.248 154.085C349.079 157.068 349.079 160.069 349.024 163.057C345.592 163.84 338.381 162.878 334.593 162.841L309.278 162.834C302.978 162.84 296.63 162.69 290.341 163.07C290.572 159.927 290.591 156.839 290.497 153.69Z"/>
	<path fill="#2F70AC" transform="scale(1.6 1.6)" d="M290.245 173.481C309.651 173.964 329.334 173.947 348.735 173.461L348.557 183.73C347.673 184.426 295.59 183.996 290.232 183.91C290.311 180.43 290.292 176.961 290.245 173.481Z"/>
	<path fill="#55A0FE" transform="scale(1.6 1.6)" d="M319.457 119.827C335.129 119.678 344.25 129.106 348.759 143.758C339.55 144.241 330.249 144.51 321.031 144.418C311.143 144.422 301.19 144.074 291.314 143.567C296.64 129.988 303.535 120.82 319.457 119.827Z"/>
	<path fill="#55A0FE" transform="scale(1.6 1.6)" d="M295.823 194.199C309.658 193.232 336.009 193.829 349.023 195.248C347.816 202.692 345.025 208.42 339.09 213.21C322.345 225.71 294.326 218.001 291.047 194.457L295.823 194.199Z"/>
</svg>
