<?xml version="1.0" encoding="utf-8" ?>
<svg xmlns="http://www.w3.org/2000/svg" xmlns:xlink="http://www.w3.org/1999/xlink" width="1024" height="1023">
	<path fill="#3D2723" transform="scale(1.6 1.6)" d="M207.053 292.326C225.415 291.878 223.865 310.338 223.736 322.285C223.608 334.154 223.166 346.244 225.245 357.978C240.161 442.139 348.922 460.817 393.872 389.048C414.856 355.544 401.665 311.778 410.229 299.915C415.818 292.173 425.006 290.058 432.656 296.052C443.878 304.845 441.27 320.653 441.235 333.148C441.14 367.255 435.656 393.118 414.134 420.247C393.773 445.912 363.571 462.326 331.213 466.04C330.957 471.988 331.015 477.953 331.002 483.906L331.013 519.476C331.015 526.65 330.858 533.86 331.253 541.025C349.118 540.612 375.701 537.786 389.234 549.326C397.148 556.074 411.248 580.08 391.036 580.278L256.667 580.284C250.496 580.294 244.127 580.629 237.98 580.252C222.458 579.298 234.97 547.269 255.834 541.856C263.705 539.815 289.378 540.832 298.616 541.082C299.292 516.455 298.553 491.72 298.746 467.079C276.324 461.391 261.093 460.547 240.586 445.189C198.392 413.59 189.041 374.586 189.075 325.511C189.084 312.166 189.437 294.763 207.053 292.326Z"/>
	<path fill="#D8E9FE" transform="scale(1.6 1.6)" d="M308.418 467.42L321.603 467.485L321.591 511.156C321.593 521.056 321.325 531.035 321.911 540.917L308.424 540.924C307.885 516.489 308.043 491.857 308.418 467.42Z"/>
	<path fill="#D8E9FE" transform="scale(1.6 1.6)" d="M271.458 551.094C294.005 551.539 316.633 551.161 339.189 551.161L357.089 551.163C373.291 551.168 385.358 552.071 390 570.129C386.987 570.289 383.903 570.042 380.881 570.025L360.469 569.977L292.945 570C275.817 570.001 258.669 570.175 241.543 569.915C246.695 554.029 255.566 551.284 271.458 551.094Z"/>
	<path fill="#D8E9FE" transform="scale(1.6 1.6)" d="M206.653 302.825C216.69 302.531 213.919 315.739 213.905 322.164C213.819 361.401 216.411 394.182 250.911 421.426C311.266 469.086 402.159 436.067 415.663 360.736C418.896 342.699 414.875 322.847 417.62 307.977C418.454 303.461 424.225 300.938 427.66 304.298C432.093 308.636 431.22 317.296 431.256 322.969C431.371 343.733 431.849 361.608 424.711 381.551C391.082 475.511 252.951 484.387 211.465 395.208C200.796 372.273 199.499 351.366 199.355 326.484C199.304 317.747 197.06 307.176 206.653 302.825Z"/>
	<path fill="#3D2723" transform="scale(1.6 1.6)" d="M311.996 114.856C351.594 113.315 385.697 140.966 389.959 180.862C401.528 181.114 418.561 186.121 425.414 195.762C426.985 197.973 427.934 200.776 429.223 203.185C437.608 200.421 436.231 194.027 437.859 186.575C438.842 182.072 440.109 177.636 441.365 173.204C422.477 167.429 418.842 141.831 430.613 127.863C448.2 106.994 482.495 116.612 484.222 143.547C485.492 163.368 471.325 174.611 452.705 175.672C450.907 181.277 448.616 186.675 447.076 192.372C451.875 193.931 456.92 194.543 461.947 194.743C475.102 195.265 472.534 196.206 476.591 208.763C478.231 213.837 485.746 235.919 488.319 239.269C490.094 241.582 494.46 240.745 497.195 241.186C511.068 243.425 521.644 261.969 519.279 275.787C512.323 316.436 451.531 304.704 459.276 265.617C461.395 254.92 468.366 248.145 477.04 242.283C473.565 233.226 466.895 216.247 464.85 207.166C458.453 205.661 451.697 205.342 445.398 203.582C442.524 207.947 439.099 211.029 435.101 214.328C442.282 244.684 420.158 269.386 389.738 270.35L389.742 314.812C389.74 325.849 390.554 337.617 388.183 348.444C382.001 376.684 358.112 401.184 329.441 406.215C289.874 413.529 252.147 390.839 243.404 350.276C241.393 340.948 241.598 331.52 241.612 322.042L241.619 298.576C241.609 290.676 240.905 278.252 242.032 270.756C238.735 270.413 235.388 270.179 232.127 269.581C210.311 265.584 191.679 242.616 195.906 219.991C189.095 217.797 181.618 217.527 174.605 216.112C171.527 224.977 168.807 234.154 166.119 243.152C185.313 251.498 188.07 278.696 173.674 292.703C161.664 304.389 141.398 304.288 129.731 292.204C110.686 272.476 124.286 239.725 155.211 240.347L161.275 221.712C162.281 218.601 163.099 214.637 164.748 211.835C159.177 200.242 158.193 186.789 153.447 176.984C152.444 176.06 147.614 175.55 145.848 174.952C105.632 161.337 127.454 103.738 166.262 117.931C192.716 127.605 192.559 162.518 165.043 174.92C168.595 183.09 170.302 196.017 173.611 205.361C182.277 206.219 190.928 207.296 199.605 208.041C207.551 190.993 220.905 181.844 240.168 181.231C243.227 145.274 276.637 117.173 311.996 114.856ZM313.352 124.867C281.965 126.556 259.836 147.066 251.842 176.483C251.043 179.425 248.985 182.205 253.16 183.086C283.645 192.931 293.663 225.413 276.704 252.202C268.613 262.748 263.141 264.997 251.99 270.012C252.103 271.638 252.154 273.226 252.13 274.855C250.915 283.14 251.866 297.818 252.229 306.271C260.003 306.699 267.86 306.485 275.646 306.486L354.618 306.483C362.952 306.481 371.332 306.673 379.657 306.262C378.943 294.063 379.389 281.604 379.442 269.379C336.86 259.909 334.178 195.711 380.176 182.873C379.239 178.849 378.557 174.777 377.454 170.79C369.394 141.662 343.335 123.997 313.352 124.867ZM252.311 316.858L252.278 320.786L252.453 324.402C261.555 323.93 270.625 324.684 279.729 324.707L341.659 324.692C353.833 324.686 367.039 325.089 379.08 323.482L379.086 317.207L252.311 316.858Z"/>
	<path fill="#DA1B31" transform="scale(1.6 1.6)" d="M485.836 251.941C509.147 249.169 519.611 283.003 493.177 289.26C468.441 295.147 458.855 257.071 485.836 251.941Z"/>
	<path fill="#DA1B31" transform="scale(1.6 1.6)" d="M453.274 126.658C477.085 124.566 482.775 164.128 454.743 165.151C429.156 164.999 425.014 130.793 453.274 126.658Z"/>
	<path fill="#DA1B31" transform="scale(1.6 1.6)" d="M152.745 127.283C178.021 125.754 184.969 160.83 156.777 165.593C133.654 168.25 123.135 132.017 152.745 127.283Z"/>
	<path fill="#DA1B31" transform="scale(1.6 1.6)" d="M149.339 251.634C174.108 249.107 183.571 283.59 156.207 289.691C130.398 294.04 121.659 257.633 149.339 251.634Z"/>
	<path fill="#DA1B31" transform="scale(1.6 1.6)" d="M236.406 191.638C281.287 185.686 286.377 255.914 245.051 259.041C236.47 259.971 227.997 258.821 220.677 254.008C196.882 238.363 203.425 197.684 236.406 191.638Z"/>
	<path fill="#DA1B31" transform="scale(1.6 1.6)" d="M388.352 191.355C429.026 184.72 445.164 252.442 396.186 259.659C386.961 260.178 377.868 259.012 370.146 253.567C345.802 236.399 354.053 196.544 388.352 191.355Z"/>
	<path fill="#55A0FE" transform="scale(1.6 1.6)" d="M252.278 320.786L252.453 324.402C261.555 323.93 270.625 324.684 279.729 324.707L341.659 324.692C353.833 324.686 367.039 325.089 379.08 323.482C384.913 386.752 312.549 422.968 269.358 378.291C252.138 360.479 251.981 343.215 252.278 320.786Z"/>
	<path fill="#D8E9FE" transform="scale(1.6 1.6)" d="M313.352 124.867C343.335 123.997 369.394 141.662 377.454 170.79C378.557 174.777 379.239 178.849 380.176 182.873C334.178 195.711 336.86 259.909 379.442 269.379C379.389 281.604 378.943 294.063 379.657 306.262C371.332 306.673 362.952 306.481 354.618 306.483L275.646 306.486C267.86 306.485 260.003 306.699 252.229 306.271C251.866 297.818 250.915 283.14 252.13 274.855C252.154 273.226 252.103 271.638 251.99 270.012C263.141 264.997 268.613 262.748 276.704 252.202C293.663 225.413 283.645 192.931 253.16 183.086C248.985 182.205 251.043 179.425 251.842 176.483C259.836 147.066 281.965 126.556 313.352 124.867ZM253.16 183.086C263.407 159.976 276.341 137.018 302.778 129.845C304.081 129.492 313.404 128.341 313.668 128.148C305.911 127.989 299.108 129.878 292.429 133.668L292.52 133.109L292.322 133.395C294.435 131.002 302.198 128.76 298.559 127.873L298.49 127.468C304.74 125.627 310.042 126.357 314.986 125.192L313.352 124.867C281.965 126.556 259.836 147.066 251.842 176.483C251.043 179.425 248.985 182.205 253.16 183.086ZM276.704 252.202C268.613 262.748 263.141 264.997 251.99 270.012C252.103 271.638 252.154 273.226 252.13 274.855L252.306 277.176L252.846 277.497C259.675 277.343 280.948 258.213 276.704 252.202Z"/>
</svg>
