<?xml version="1.0" encoding="utf-8" ?>
<svg xmlns="http://www.w3.org/2000/svg" xmlns:xlink="http://www.w3.org/1999/xlink" width="1024" height="1024">
	<path fill="#3D2723" transform="scale(1.6 1.6)" d="M488.24 100.469C503.982 101.766 537.056 96.8416 547.659 107.24C556.948 116.35 554.986 124.609 554.95 136.548L555.171 282.733C555.15 306.999 526.565 303.492 510.99 303.494L464.681 303.445C465.643 315.053 464.907 326.789 465.614 338.46C467.179 364.248 467.215 392.987 467.343 419.018C467.433 437.252 464.847 455.131 443.141 461.071C435.515 463.158 421.831 461.867 413.537 461.859L357.666 461.85C348.061 461.849 338.225 461.356 328.649 461.928C328.797 473.367 328.367 484.818 328.615 496.259L348.067 496.242C374.143 496.218 392.083 506.196 392.526 534.877C392.702 546.261 370.816 542.266 362.034 542.267L320.327 542.267C270.823 542.266 221.264 541.761 171.767 542.336C168.044 539.726 168.037 536.978 168.369 532.576C169.428 505.644 189.042 496.246 213.45 496.239L232.985 496.399C234.055 484.988 233.444 473.135 233.437 461.669L149.796 461.851C140.596 461.852 121.468 462.804 113.295 461.01C81.4585 454.022 88.7521 406.72 88.7527 382.029L88.7608 256.017C88.7045 211.09 93.5046 202.711 139.982 202.721L296.626 202.734C317.394 202.736 338.253 203.141 359.007 202.595L358.97 147.166C358.969 131.061 354.735 106.869 375.823 101.869C383.862 99.9627 396.975 100.854 405.477 100.861L457.797 100.868C467.854 100.868 478.225 101.399 488.24 100.469ZM109.963 215.754C112.44 222.067 112.048 225.696 118.555 228.67L118.707 228.632C115.016 226.012 112.424 223.849 111.604 219.098C110.955 215.337 121.213 222.943 121.365 227.976C120.779 228.467 120.162 228.868 120.111 229.712C129.245 222.458 145.74 225.443 156.788 225.659C170.019 225.917 183.237 225.943 196.47 225.927L358.934 226.373C359.118 221.791 358.957 217.183 359.404 212.615C353.828 212.327 348.193 212.478 342.611 212.478L159.765 212.474C147.85 212.47 120.004 210.146 109.963 215.754ZM440.795 303.688L442.441 359.61C442.697 370.731 442.458 381.909 442.456 393.035L442.511 410.141C442.728 437.167 436.223 434.694 411.608 436.523C409.01 436.872 406.218 436.077 403.695 436.801C405.616 437.414 417.905 436.875 420.972 436.875C424.632 440.672 425.161 437.869 428.755 438.382C433.761 439.098 438.396 441.103 442.816 436.814C446.241 433.49 451.563 415.033 454.527 418.852C459.73 425.553 450.167 439.217 449.916 442.069L450.314 441.941C451.036 440.462 451.772 438.704 452.946 437.542C455.302 433.668 455.91 429.983 456.36 425.557C457.107 421.928 455.615 406.516 455.491 401.469C455.154 387.707 455.738 373.916 455.427 360.155C455.154 348.092 453.954 335.938 454.113 323.863C453.742 317.102 453.854 310.349 453.762 303.582C449.444 303.548 445.11 303.479 440.795 303.688Z"/>
	<path fill="#33444D" transform="scale(1.6 1.6)" d="M454.113 323.863C457.684 336.324 453.085 366.287 456.137 375.247C456.603 376.615 458.07 377.831 458.73 379.277C458.639 368.535 458.808 357.764 458.524 347.028C458.407 342.597 457.405 334.933 457.811 330.695C459.726 334.553 459.818 416.261 457.228 431.115C457.182 429.101 456.903 427.491 456.36 425.557C457.107 421.928 455.615 406.516 455.491 401.469C455.154 387.707 455.738 373.916 455.427 360.155C455.154 348.092 453.954 335.938 454.113 323.863Z"/>
	<path fill="#DA1B31" transform="scale(1.6 1.6)" d="M243.564 462.465L296.483 462.447C303.781 462.449 311.441 463.089 318.698 462.632C318.315 466.229 318.68 469.919 318.168 473.475C318.098 478.123 316.891 502.898 318.394 505.638C320.985 507.688 325.251 507.209 328.418 507.215L346.853 507.175C364.843 507.146 380.393 508.938 381.315 532.211L261.401 531.372C247.035 531.372 232.637 531.57 218.275 531.251C205.338 531.684 192.04 531.724 179.107 531.084C183.662 503.37 209.464 507.381 231.538 507.106C247.496 506.042 243.839 506.274 243.8 490.919L243.699 466.798L243.564 462.465Z"/>
	<path fill="#D8E9FE" transform="scale(1.6 1.6)" d="M454.551 439.522C445.043 455.028 420.087 451.26 404.358 451.248L142.583 451.24C123.531 451.247 101.122 456.042 99.3264 428.414C98.4565 415.025 99.0606 401.332 99.0663 387.909L99.0468 258.609C99.0402 242.518 94.4896 224.995 109.963 215.754C112.44 222.067 112.048 225.696 118.555 228.67L118.707 228.632C115.016 226.012 112.424 223.849 111.604 219.098C110.955 215.337 121.213 222.943 121.365 227.976C120.779 228.467 120.162 228.868 120.111 229.712C114.418 237.105 115.278 244.882 115.289 253.7L115.276 412.913C115.253 420.289 114.715 427.04 121.384 432.038C130.063 438.544 150.421 436.228 160.758 436.224L394.543 436.204C400.084 436.194 406.118 435.761 411.608 436.523C409.01 436.872 406.218 436.077 403.695 436.801C405.616 437.414 417.905 436.875 420.972 436.875C424.632 440.672 425.161 437.869 428.755 438.382C433.761 439.098 438.396 441.103 442.816 436.814C446.241 433.49 451.563 415.033 454.527 418.852C459.73 425.553 450.167 439.217 449.916 442.069L450.314 441.941C451.036 440.462 451.772 438.704 452.946 437.542C455.302 433.668 455.91 429.983 456.36 425.557C456.903 427.491 457.182 429.101 457.228 431.115C456.85 434.145 456.224 436.901 454.551 439.522Z"/>
	<path fill="#D8E9FE" transform="scale(1.6 1.6)" d="M432.206 388.639C432.164 395.496 433.836 418.52 430.181 422.906C426.51 427.313 417.352 425.898 412.317 425.899L157.035 425.888C149.752 425.896 142.422 426.081 135.144 425.873C128.321 425.679 125.949 424.352 125.347 417.302C124.625 408.838 125.151 399.93 125.151 391.426L125.172 274.54C125.172 263.79 124.673 252.857 125.12 242.133C125.28 238.303 126.105 236.678 130.053 236.269C138.952 235.349 151.991 236.598 161.644 236.249C159.807 260.549 161.217 289.397 161.226 313.97L161.217 343.056C161.206 354.875 160.31 366.137 168.534 375.83C183.508 393.478 202.55 389.725 222.877 389.629L421.015 388.788C424.733 388.728 428.499 388.848 432.206 388.639Z"/>
	<path fill="white" transform="scale(1.6 1.6)" d="M446.464 110.78C473.068 111.403 499.725 110.487 526.335 110.89C550.672 111.258 545 127.454 544.976 146.036L544.969 254.335C544.952 263.709 548.895 290.969 535.892 293.341C524.892 295.347 479.387 293.77 467.598 293.265L467.164 293.284C459.632 293.601 452.059 293.449 444.52 293.447L407.875 293.436C393.328 293.434 369.301 298.292 368.899 278.967C368.669 267.899 368.907 256.779 368.907 245.704L368.884 143.239C368.836 111.524 366.301 110.861 401.074 110.885C416.199 110.895 431.341 111.026 446.464 110.78Z"/>
	<path fill="#3D2723" transform="scale(1.6 1.6)" d="M440.388 121.402L518.84 121.39C524.483 121.375 531.111 119.96 534.912 124.99C535.709 130.571 534.971 136.255 534.96 141.863L534.97 242.257C534.97 248.919 538.061 281.553 531.064 282.68C516.187 285.078 491.808 282.422 475.386 283.336C467.508 282.885 459.541 283.115 451.652 283.116L411.688 283.123C406.543 283.124 381.975 285.138 380.115 278.885C379.053 275.312 379.764 266.182 379.77 262.033L379.767 162.968C379.766 155.946 378.168 128.302 381.013 123.148C385.926 120.093 400.938 121.411 406.666 121.41L440.388 121.402Z"/>
	<path fill="#55A0FE" transform="scale(1.6 1.6)" d="M389.637 131.41C397.748 131.082 405.924 131.278 414.044 131.276L497.514 131.281C506.719 131.282 515.938 131.133 525.136 131.544C523.968 142.776 524.695 155.365 524.694 166.748L524.693 235.502C524.696 247.317 525.31 259.471 524.552 271.243L451.659 271.617C431.112 271.874 410.567 272.617 390.015 272.187C389.507 266.008 389.689 259.754 389.689 253.556L389.637 131.41Z"/>
	<path fill="#3D2723" transform="scale(1.6 1.6)" d="M498.143 209.053C510.587 208.326 506.554 222.398 506.56 232.558C506.563 236.993 508.414 245.426 504.689 248.614C502.217 249.475 497.926 249.614 496.944 246.512C495.769 242.803 495.537 213.965 498.143 209.053Z"/>
	<path fill="#3D2723" transform="scale(1.6 1.6)" d="M444.91 178.099C446.954 178.187 450.041 178.509 450.913 180.745C451.822 183.079 452.056 227.572 451.274 230.132C450.606 230.972 449.705 231.032 448.714 231.245L448.4 231.251C446.297 231.269 443.617 231.131 442.052 229.575C440.87 225.538 441.318 184.153 442.543 179.371C443.043 178.626 444.102 178.404 444.91 178.099Z"/>
	<path fill="#3D2723" transform="scale(1.6 1.6)" d="M472.134 196.601C481.714 196.195 478.449 205.812 478.45 213.269C478.451 223.77 478.789 234.399 478.352 244.888C478.211 248.25 477.388 248.817 474.136 249.708C469.046 248.639 468.314 246.953 468.047 242.075C467.568 233.314 467.473 202.913 468.917 197.984C469.818 197.138 470.975 196.929 472.134 196.601Z"/>
	<path fill="#3D2723" transform="scale(1.6 1.6)" d="M415.753 152.271C427.41 151.04 422.801 170.134 422.802 179.841C422.802 195.594 422.752 211.295 423.288 227.041C422.134 228.577 420.738 229.798 419.317 231.079C417.618 231.899 414.123 230.03 413.339 228.539C412.43 226.813 409.499 155.651 415.753 152.271Z"/>
	<path fill="white" transform="scale(1.6 1.6)" d="M161.644 236.249C177.968 236.75 194.398 236.404 210.734 236.401L304.478 236.394C322.624 236.394 340.818 236.121 358.959 236.58L358.966 265.86C358.952 293.755 358.74 303.533 392.398 303.501L416.674 303.476C421.403 303.476 426.278 303.273 430.99 303.672C431.62 331.987 432.219 360.318 432.206 388.639C428.499 388.848 424.733 388.728 421.015 388.788L222.877 389.629C202.55 389.725 183.508 393.478 168.534 375.83C160.31 366.137 161.206 354.875 161.217 343.056L161.226 313.97C161.217 289.397 159.807 260.549 161.644 236.249Z"/>
</svg>
