<?xml version="1.0" encoding="utf-8" ?>
<svg xmlns="http://www.w3.org/2000/svg" xmlns:xlink="http://www.w3.org/1999/xlink" width="1024" height="1023">
	<path fill="#3D2723" transform="scale(1.6 1.6)" d="M96.7197 419.671C96.1482 413.862 96.7822 407.651 96.7853 401.796L96.7874 231.844C96.785 208.501 96.5459 185.129 96.8517 161.789C96.9587 153.623 96.1992 145.043 97.3253 136.928C100.591 113.392 125.627 116.515 142.147 116.516L508.304 116.477C522.679 116.454 537.774 116.547 542.903 134.435C544.565 140.233 543.556 151.537 543.505 158.005L542.825 351.309C542.817 357.286 544.722 371.341 540.391 375.687C539.521 383.444 540.117 391.543 540.268 399.342C545.267 402.66 544.758 407.189 540.58 411.058C539.701 413.306 538.927 415.544 538.242 417.859C558.533 424.192 559.424 449.856 537.533 452.426C530.717 453.227 522.521 452.577 515.587 452.548L325.227 452.591C325.564 477.375 325.114 501.522 326.011 526.363C339.161 529.969 349.239 538.417 351.399 552.795C369.247 554.055 387.412 552.111 404.564 553.286C410.87 553.718 412.308 560.087 407.642 563.623C402.811 563.872 344.715 564.708 342.543 563.24C340.533 561.881 340.962 554 340.229 551.512C334.099 530.686 299.813 529.01 298.629 560.324C297.554 562.184 296.35 563.707 294.023 563.756C280.107 564.047 246.384 565.503 233.356 563.628C228.121 562.875 229.955 556.553 233.368 553.561C239.393 552.729 245.908 553.28 251.999 553.286L288.244 553.313C289.897 539.29 301.72 529.056 314.991 525.798C314.725 501.431 314.567 476.921 315.057 452.56C298.015 452.031 280.197 452.537 263.088 452.538L122.911 452.557C116.318 452.567 109.46 452.945 102.896 452.446C84.4023 451.042 82.1186 430.784 96.7197 419.671Z"/>
	<path fill="#33444D" transform="scale(1.6 1.6)" d="M104.104 428.499C116.41 428.893 128.731 428.743 141.039 428.72L480.493 428.701C494.012 428.72 507.339 429.023 520.832 429.539C526.8 429.767 553.836 428.754 540.691 442.582C538.871 443.139 537.154 443.333 535.27 443.405L244.519 441.314C233.325 441.318 222.109 441.181 210.918 441.398L143.359 442.531C129.607 442.647 115.748 443.313 102.014 442.705C99.8248 440.789 98.7011 439.032 97.5794 436.366C98.797 432.712 100.044 429.737 104.104 428.499Z"/>
	<path fill="#55A0FE" transform="scale(1.6 1.6)" d="M108.328 137.058C111.496 122.079 132.79 126.972 144.118 126.96L494.268 126.926C504.652 126.974 525.479 123.642 531.512 134.241C534.766 139.959 533.532 148.388 533.527 154.698L532.753 360.748C532.742 365.01 532.362 369.422 532.845 373.657C535.315 374.963 537.625 375.488 540.391 375.687C539.521 383.444 540.117 391.543 540.268 399.342C545.267 402.66 544.758 407.189 540.58 411.058C539.701 413.306 538.927 415.544 538.242 417.859C535.171 416.83 517.462 416.602 513.056 416.561L506.785 416.55C507.902 413.708 511.117 413.427 513.752 412.792C516.875 407.307 515.159 353.212 515.158 343.907L515.162 314.216C515.172 309.187 516.494 302.279 514.716 297.477C524.919 276.11 524.597 258.622 514.619 236.836C516.192 233.542 515.847 180.073 514.04 168.478C491.421 166.692 468.596 167.376 445.914 167.375L235.422 167.361C229.146 167.349 222.854 167.183 216.6 167.796C212.17 167.453 207.979 167.519 203.557 167.834C192.467 167.541 185.175 170.476 175.876 162.56C171.864 164.194 159.604 164.984 155.051 164.885C153.755 163.67 152.625 162.373 151.478 161.02C139.446 152.197 123.305 139.349 108.328 137.058Z"/>
	<path fill="#3D2723" transform="scale(1.6 1.6)" d="M531.356 404.445C532.865 399.905 535.477 398.471 540.268 399.342C545.267 402.66 544.758 407.189 540.58 411.058C537.489 410.744 535.095 410.013 532.627 408.085C532.123 406.905 531.755 405.664 531.356 404.445Z"/>
	<path fill="#D8E9FE" transform="scale(1.6 1.6)" d="M170.892 157.416C172.697 158.965 174.167 160.898 175.876 162.56C171.864 164.194 159.604 164.984 155.051 164.885C153.755 163.67 152.625 162.373 151.478 161.02C155.615 161.485 156.546 158.7 160.395 157.868C163.736 157.146 167.482 157.41 170.892 157.416Z"/>
	<path fill="#3D2723" transform="scale(1.6 1.6)" d="M145.595 141.01C149.893 140.698 154.357 141.084 158.678 141.095L478.715 141.109C487.145 141.109 495.617 140.913 504.042 141.128C513.327 141.364 517.181 151.241 510.496 151.232C498.731 150.597 486.812 150.971 475.029 150.971L179.091 150.973C172.218 150.975 149.329 153.197 144.668 147.942C142.644 145.661 143.386 142.879 145.595 141.01Z"/>
	<path fill="white" transform="scale(1.6 1.6)" d="M108.328 137.058C123.305 139.349 139.446 152.197 151.478 161.02C152.625 162.373 153.755 163.67 155.051 164.885C159.604 164.984 171.864 164.194 175.876 162.56C185.175 170.476 192.467 167.541 203.557 167.834C207.979 167.519 212.17 167.453 216.6 167.796C210.643 169.421 208.797 167.498 217.26 169.837L216.581 170.306L216.708 169.958C216.489 172.715 212.081 170.41 206.7 174.429C205.499 175.024 202.735 176.033 202.275 177.33C203.752 178.951 211.173 178.263 211.42 179.639C234.95 186.566 245.45 205.994 242.098 229.69C245.233 230.586 252.768 247.667 254.954 251.432C256.852 254.699 266.257 265.239 264.241 268.469C278.198 284.831 277.889 302.725 277.65 323.049C279.522 319.313 276.012 313.179 278.117 309.588C281.099 310.739 282.545 317.37 283.898 320.078C291.707 335.704 301.331 349.916 310.357 364.815C319.9 380.567 332.693 400.75 341.018 416.991C320.776 416.291 300.358 416.838 280.092 416.839L130.766 416.844C123.078 416.844 115.352 417.008 107.673 416.616C107.127 401.714 107.518 386.672 107.516 371.756L107.517 208.185C107.519 184.414 107.439 160.806 108.328 137.058Z"/>
	<path fill="#3D2723" transform="scale(1.6 1.6)" d="M271.451 344.316C274.328 344.907 275.776 346.405 277.417 348.714C278.434 356.386 280.545 366.028 273.042 369.267C270.632 369.611 268.147 369.392 266.928 366.937C265.43 363.921 264.066 347.161 271.451 344.316Z"/>
	<path fill="#3D2723" transform="scale(1.6 1.6)" d="M126.902 344.676C137.868 344.222 133.331 367.104 132.646 368.109C131.887 369.224 130.503 369.462 129.29 369.754C127.082 369.735 124.356 369.661 123.085 367.493C120.979 363.9 119.98 348.696 126.902 344.676Z"/>
	<path fill="#3D2723" transform="scale(1.6 1.6)" d="M170.092 249.778C143.146 216.73 167.331 172.653 211.42 179.639C234.95 186.566 245.45 205.994 242.098 229.69C245.233 230.586 252.768 247.667 254.954 251.432C256.852 254.699 266.257 265.239 264.241 268.469C278.198 284.831 277.889 302.725 277.65 323.049C277.528 326.804 276.545 330.914 271.894 330.518C264.615 329.898 266.728 316.972 266.914 312.435C267.433 299.722 265.561 287.166 257.392 276.95C242.649 258.513 226.717 261.151 206.226 261.224L184.379 261.183C170.957 261.111 159.878 261.47 148.945 270.503C122.515 292.34 139.64 322.872 130.982 329.126C127.703 331.494 124.541 329.411 122.563 326.549C119.65 287.788 127.85 258.709 170.092 249.778Z"/>
	<path fill="white" transform="scale(1.6 1.6)" d="M242.098 229.69C245.233 230.586 252.768 247.667 254.954 251.432C256.852 254.699 266.257 265.239 264.241 268.469C254.941 258.812 243.947 252.553 230.642 250.546C236.844 242.2 239.22 240.079 242.098 229.69Z"/>
	<path fill="white" transform="scale(1.6 1.6)" d="M198.933 189.183C238.029 185.2 245.918 247.874 204.14 250.97C160.668 254.317 157.197 194.052 198.933 189.183Z"/>
	<path fill="#D8E9FE" transform="scale(1.6 1.6)" d="M216.6 167.796C222.854 167.183 229.146 167.349 235.422 167.361L445.914 167.375C468.596 167.376 491.421 166.692 514.04 168.478C515.847 180.073 516.192 233.542 514.619 236.836C524.597 258.622 524.919 276.11 514.716 297.477C516.494 302.279 515.172 309.187 515.162 314.216L515.158 343.907C515.159 353.212 516.875 407.307 513.752 412.792C511.117 413.427 507.902 413.708 506.785 416.55C502.666 416.846 498.64 416.832 494.522 416.617C488.453 417.252 479.977 417.227 473.851 416.653C463.535 417.059 453.155 416.845 442.829 416.841L356.9 416.851C351.66 416.86 346.237 417.236 341.018 416.991C332.693 400.75 319.9 380.567 310.357 364.815C301.331 349.916 291.707 335.704 283.898 320.078C282.545 317.37 281.099 310.739 278.117 309.588C276.012 313.179 279.522 319.313 277.65 323.049C277.889 302.725 278.198 284.831 264.241 268.469C266.257 265.239 256.852 254.699 254.954 251.432C252.768 247.667 245.233 230.586 242.098 229.69C245.45 205.994 234.95 186.566 211.42 179.639C211.173 178.263 203.752 178.951 202.275 177.33C202.735 176.033 205.499 175.024 206.7 174.429C212.081 170.41 216.489 172.715 216.708 169.958L216.581 170.306L217.26 169.837C208.797 167.498 210.643 169.421 216.6 167.796Z"/>
	<path fill="#3D2723" transform="scale(1.6 1.6)" d="M396.799 328.627C386.938 327.849 377.262 329.307 367.387 327.052C326.768 317.776 296.383 273.189 323.145 235.699C331.282 224.299 356.847 202.286 368.185 195.428C413.675 167.913 461.314 185.241 497.867 218.072C504.083 223.655 510.277 229.64 514.619 236.836C524.597 258.622 524.919 276.11 514.716 297.477C495.99 326.466 472.233 328.676 441.812 328.615L410.151 328.61L396.799 328.627Z"/>
	<path fill="#DA1B31" transform="scale(1.6 1.6)" d="M417.087 193.893C450.421 194.296 474.209 210.33 496.785 232.535C517.902 253.306 515.079 282.853 494.724 303.09C480.305 317.424 461.636 318.526 442.51 318.524L419.894 318.501L397.356 318.529C365.416 318.546 326.118 307.775 324.741 269.355C323.918 246.377 337.956 235.061 353.319 221.198C373.051 203.393 389.16 194.654 417.087 193.893Z"/>
</svg>
