<?xml version="1.0" encoding="utf-8" ?>
<svg xmlns="http://www.w3.org/2000/svg" xmlns:xlink="http://www.w3.org/1999/xlink" width="1024" height="1024">
	<path fill="#3D2723" transform="scale(1.6 1.6)" d="M505.411 100.447C527.259 98.5865 493.513 138.068 481.421 141.469C476.801 141.6 471.528 136.165 475.072 131.879C480.861 124.881 488.612 123.762 495.511 112.26C498.182 107.808 499.759 101.685 505.411 100.447Z"/>
	<path fill="#3D2723" transform="scale(1.6 1.6)" d="M528.253 118.563C554.32 116.643 518.626 157.064 498.467 162.421C493.806 163.102 487.733 160.551 489.654 154.696C490.959 150.718 500.035 147.46 503.583 145.346C517.6 136.995 524.67 120.579 528.253 118.563Z"/>
	<path fill="#3D2723" transform="scale(1.6 1.6)" d="M543.331 146.017C562.674 144.378 547.9 163.487 542.4 170.222C534.444 179.964 519.662 186.103 507.378 187.398C503.052 187.572 496.635 185.254 497.454 179.833C498.63 172.042 523.833 176.394 537.178 154.471C539.007 151.467 540.511 148.218 543.331 146.017Z"/>
	<path fill="#3D2723" transform="scale(1.6 1.6)" d="M547.855 177.906C550.609 177.619 552.45 178.006 554.882 179.332C557.714 186.613 553.263 204.197 548.293 209.39C542.85 215.075 534.166 213.761 527.06 213.751L508.858 213.804C504.304 213.641 501.74 211.637 500.355 207.212C502.713 198.966 510.485 200.944 517.311 200.969L538.323 201.155C541.38 192.856 539.622 180.006 547.855 177.906Z"/>
	<path fill="#3D2723" transform="scale(1.6 1.6)" d="M119.93 420.026C115.183 405.857 127.057 393.602 135.367 383.819L166.044 347.913C170.776 342.308 175.037 333.445 183.527 338.493C184.625 340.661 185.461 342.843 186.176 345.165C182.33 353.056 164.896 368.771 158.352 375.943C170.535 387.363 183.042 398.314 194.868 410.127L221.107 436.253C226.077 441.106 231.055 446.426 236.702 450.499C244.921 444.771 252.867 436.486 260.314 429.674C277.766 413.709 299.496 393.152 318.476 380.159C319.334 381.213 320.408 382.94 321.842 383.121C323.256 387.162 323.846 390.48 323.724 394.785C322.153 395.942 320.523 395.933 318.966 396.89C307.4 404.001 294.429 416.879 284.227 425.917L240.329 464.222C224.309 478.242 213.831 491.606 190.374 485.845C183.59 496.759 168.987 505.446 156.323 506.199C139.081 507.224 129.024 499.595 116.883 488.808C109.069 494.074 100.047 501.403 98.1894 511.204C96.0577 522.448 104.528 534.117 115.622 536.241C121.418 537.351 135.676 536.684 142.185 536.68L534.549 536.661C539.867 536.654 545.284 536.436 550.537 537.388C556.347 543.156 553.46 549.374 545.878 549.341L132.375 549.279C126.099 549.278 119.49 549.519 113.271 548.6C94.2866 545.793 82.3522 526.498 85.446 508.136C87.66 494.995 98.6925 486.187 108.847 478.853C95.8029 455.378 98.9583 436.999 119.93 420.026Z"/>
	<path fill="#55A0FE" transform="scale(1.6 1.6)" d="M126.441 430.581C130.416 432.885 133.391 437.48 136.72 440.636C148.952 452.229 167.365 471.134 180.229 480.198C175.572 484.491 171.069 488.12 165.359 490.936C132.209 505.912 92.8105 451.666 126.441 430.581Z"/>
	<path fill="#55A0FE" transform="scale(1.6 1.6)" d="M151.803 385.847C156.562 389.855 160.755 395.378 165.305 399.765C178.637 412.618 192.226 425.194 205.363 438.251C212.225 445.072 218.639 453.097 226.689 458.523C220.581 464.922 214.428 472.245 205.45 474.322C187.958 478.123 170.434 454.499 158.099 442.872C129.048 415.488 118.37 417.146 151.803 385.847Z"/>
	<path fill="#3D2723" transform="scale(1.6 1.6)" d="M271.804 223.153C268.605 199.783 269.108 179.808 284.113 160.028C287.085 156.11 291.906 149.39 296.08 147.029C306.265 141.267 304.134 141.915 313.025 134.838C379.568 81.8703 476.845 118.046 488.049 203.671C491.618 230.947 479.881 275.208 455.553 291.377C465.471 303.888 455.868 311.141 443.816 320.142C431.604 329.262 403.418 338.907 388.009 334.335C375.619 344.397 364.244 355.766 352.433 366.489C347.396 371.063 338.572 383.194 331.852 376.7C329.615 377.695 323.588 381.501 321.842 383.121C320.408 382.94 319.334 381.213 318.476 380.159C299.496 393.152 277.766 413.709 260.314 429.674C252.867 436.486 244.921 444.771 236.702 450.499C231.055 446.426 226.077 441.106 221.107 436.253L194.868 410.127C183.042 398.314 170.535 387.363 158.352 375.943C164.896 368.771 182.33 353.056 186.176 345.165C185.461 342.843 184.625 340.661 183.527 338.493C186.601 335.26 189.577 331.973 192.741 328.823C184.852 320.723 196.104 314.158 201.84 307.058C223.954 279.685 251.659 251.263 271.804 223.153Z"/>
	<path fill="#D8E9FE" transform="scale(1.6 1.6)" d="M302.213 158.607C307.302 159.545 325.684 180.918 330.252 185.392L400.947 255.249C415.179 269.587 433.708 285.411 446.08 300.649C439.996 308.918 431.851 313.65 422.414 317.264C415.179 320.02 392.883 325.285 385.495 320.601C375.22 314.086 357.534 294.25 348.519 285.308C330.642 267.575 312.254 250.401 294.696 232.339C284.345 221.691 282.197 218.454 282.476 202.893C282.795 185.111 289.508 170.925 302.213 158.607Z"/>
	<path fill="#55A0FE" transform="scale(1.6 1.6)" d="M376.703 122.631C400.732 119.686 427.839 130.295 445.532 146.233C488.842 185.249 484.571 243.097 447.564 283.925C441.757 279.228 436.623 273.219 431.304 267.947L356.864 194.252C342.874 180.366 326.448 165.63 314.172 150.457C331.087 133.723 353.044 124.291 376.703 122.631Z"/>
	<path fill="#DA1B31" transform="scale(1.6 1.6)" d="M280.136 235.042C309.393 263.228 337.78 293.135 366.824 321.818C369.063 324.028 371.333 326.525 373.89 328.365C359.058 343.809 343.491 355.298 328.735 369.433C330.234 371.815 331.181 373.965 331.852 376.7C329.615 377.695 323.588 381.501 321.842 383.121C320.408 382.94 319.334 381.213 318.476 380.159C299.496 393.152 277.766 413.709 260.314 429.674C252.867 436.486 244.921 444.771 236.702 450.499C231.055 446.426 226.077 441.106 221.107 436.253L194.868 410.127C183.042 398.314 170.535 387.363 158.352 375.943C164.896 368.771 182.33 353.056 186.176 345.165C185.461 342.843 184.625 340.661 183.527 338.493C186.601 335.26 189.577 331.973 192.741 328.823C200.902 329.461 202.268 325.803 207.357 320.184C212.092 314.957 216.632 309.607 221.199 304.235L268.667 248.228C272.424 243.842 275.987 239.055 280.136 235.042Z"/>
	<path fill="#3D2723" transform="scale(1.6 1.6)" d="M281.55 296.989C297.361 294.828 311.144 306.267 312.105 322.007C313.195 339.868 290.662 357.53 278.851 369.309C269.19 378.943 262.47 388.328 247.89 389.223C221.171 391.264 208.486 366.569 223.68 346.554C231.026 336.877 240.544 328.35 249.153 319.796C258.641 310.369 267.48 298.967 281.55 296.989Z"/>
	<path fill="#33444D" transform="scale(1.6 1.6)" d="M283.918 310.725C295.862 309.496 303.283 321.285 296.268 331.659C289.792 341.236 279.843 348.875 271.615 356.95C263.697 364.72 257.479 373.669 246.007 375.907C238.913 376.492 232.283 372.77 231.1 365.321C229.411 354.694 238.64 348.341 245.483 341.988L265.37 323.761C271.357 318.222 275.289 311.871 283.918 310.725Z"/>
</svg>
