<?xml version="1.0" encoding="utf-8" ?>
<svg xmlns="http://www.w3.org/2000/svg" xmlns:xlink="http://www.w3.org/1999/xlink" width="1024" height="1024">
	<path fill="#3D2723" transform="scale(1.6 1.6)" d="M316.811 54.8504C342.814 54.1633 364.387 66.2985 367.112 93.751C368.393 106.656 363.3 138.219 358.94 150.45C353.304 166.261 341.097 180.072 323.515 181.812C293.406 183.195 280.295 151.923 276.292 127.1C270.459 90.9279 272.706 58.1247 316.811 54.8504Z"/>
	<path fill="#A2C7E7" transform="scale(1.6 1.6)" d="M319.187 170.818C320.514 170.464 320.431 169.965 320.523 168.714C321.612 167.74 323.47 167.848 324.793 167.205C340.514 159.556 343.654 146.09 349.97 141.474C347.146 156.218 336.139 172.804 319.187 170.818Z"/>
	<path fill="#D8E9FE" transform="scale(1.6 1.6)" d="M319.187 170.818L317.424 170.465C287.075 164.089 280.955 112.057 285.893 89.3594C292.721 57.9833 349.949 57.5466 354.891 89.3737C357.035 103.181 353.275 127.763 349.97 141.474C343.654 146.09 340.514 159.556 324.793 167.205C323.47 167.848 321.612 167.74 320.523 168.714C320.431 169.965 320.514 170.464 319.187 170.818Z"/>
	<path fill="#3D2723" transform="scale(1.6 1.6)" d="M350.826 185.315C365.643 183.036 385.479 189.903 397.353 198.636C423.596 217.936 430.571 268.549 425.545 299.193C432.828 299.9 440.229 299.629 447.539 299.63L485.628 299.601C492.421 299.646 500.027 298.957 506.666 300.605C526.251 305.468 531.333 330.486 515.887 342.763C505.324 351.159 488.852 348.121 476.083 348.528L476.031 502.303C476.064 523.306 477.04 529.071 450.569 529.054L242.794 529.037C221.724 529.042 200.628 529.297 179.562 529.059C161.545 528.854 164.295 507.753 164.404 495.379L164.416 393.318C164.414 378.403 163.932 363.323 164.895 348.441C157.42 348.474 138.049 349.009 131.299 346.966C109.763 340.449 110.842 306.641 133.741 300.469C143.41 297.863 203.831 299.287 214.836 299.851C212.854 247.325 218.741 187.389 283.945 185.24C293.245 184.934 294.218 193.254 298.629 201.27L299.393 201.105C300.905 197.916 292.244 189.444 305.335 187.689C304.945 187.056 305.077 187.378 304.908 186.74C314.061 186.62 332.477 186.779 341.518 188.326C343.188 190.077 344.625 191.9 347.285 191.693C348.255 189.33 349.067 187.219 350.826 185.315ZM229.819 241.158C233.287 240.927 235.349 238.866 238.299 237.305L238.784 237.051C243.724 220.448 259.691 212.299 275.788 208.95C280.043 208.065 284.45 208.043 288.644 206.843C286.552 203.254 284.53 199.584 282.228 196.127C253.573 198.99 236.976 214.125 229.819 241.158ZM358.838 195.779C356.538 199.421 354.5 203.263 352.278 206.96C371.812 208.551 395.117 212.678 405.775 230.99C406.001 229.646 405.435 228.603 405.572 227.305L406.373 227.719C399.099 207.619 378.299 199.583 358.838 195.779Z"/>
	<path fill="#D8E9FE" transform="scale(1.6 1.6)" d="M405.775 230.99C406.001 229.646 405.435 228.603 405.572 227.305L406.373 227.719C409.021 232.387 410.446 238.317 411.785 243.497C409.451 245.645 406.366 233.285 405.775 230.99Z"/>
	<path fill="#D8E9FE" transform="scale(1.6 1.6)" d="M298.629 201.27L299.393 201.105C300.905 197.916 292.244 189.444 305.335 187.689C304.945 187.056 305.077 187.378 304.908 186.74C314.061 186.62 332.477 186.779 341.518 188.326C343.188 190.077 344.625 191.9 347.285 191.693C343.05 201.998 328.484 226.304 320.601 235.306C312.904 224.205 305.392 212.97 298.629 201.27Z"/>
	<path fill="white" transform="scale(1.6 1.6)" d="M140.527 310.451C144.919 310.134 149.577 310.552 154.007 310.558L469.575 310.555C476.996 310.552 502.043 308.913 507.811 313.076C518.329 320.665 512.648 335.16 500.651 336.551L154.473 336.597C149.39 336.598 144.256 336.761 139.181 336.528C123.219 335.795 122.921 313.271 140.527 310.451Z"/>
	<path fill="#55A0FE" transform="scale(1.6 1.6)" d="M288.644 206.843C292.415 210.298 294.409 215.492 297.018 219.805C299.688 224.216 315.188 249.83 319.248 251.292C326.204 251.328 348.016 213.769 352.278 206.96C371.812 208.551 395.117 212.678 405.775 230.99C406.366 233.285 409.451 245.645 411.785 243.497C414.948 257.225 416.932 286.411 412.949 299.722C407.007 299.626 400.973 299.825 395.043 299.547C394.794 292.287 396.473 262.501 392.469 258.549C389.103 255.226 383.729 258.298 383.041 262.422C382.066 268.266 382.58 291.459 382.445 299.618L273.568 299.609C268.155 299.607 262.586 299.399 257.193 299.89L257.161 273.717C257.218 263.279 260.703 260.055 248.791 257.611C244.794 265.281 246.443 289.555 245.804 299.557C242.066 299.557 238.258 299.703 234.531 299.426L226.463 299.057C226.024 292.355 225.694 284.965 226.22 278.282C225.265 267.463 227.591 251.876 229.819 241.158C233.287 240.927 235.349 238.866 238.299 237.305L238.784 237.051C243.724 220.448 259.691 212.299 275.788 208.95C280.043 208.065 284.45 208.043 288.644 206.843Z"/>
	<path fill="#D8E9FE" transform="scale(1.6 1.6)" d="M229.819 241.158C233.287 240.927 235.349 238.866 238.299 237.305L238.784 237.051C236.52 245.251 234.747 253.686 233.039 262.021C231.155 266.819 229.51 281.191 228.717 282.557C225.437 282.47 227.362 280.66 226.22 278.282C225.265 267.463 227.591 251.876 229.819 241.158Z"/>
	<path fill="#DA1B31" transform="scale(1.6 1.6)" d="M445.437 348.291C450.592 348.079 459.717 347.888 464.572 348.419C465.372 403.666 462.462 461.361 464.973 516.148C449.569 517.969 433.871 517.47 418.388 517.469L267.71 518.223C243.426 518.518 219.116 518.29 194.844 517.67C188.743 517.414 182.64 517.758 176.551 517.433C175.042 510.241 175.777 501.88 175.78 494.538L175.79 389.055C175.788 375.544 175.436 361.937 176.027 348.439L412.243 348.437C423.292 348.438 434.395 348.657 445.437 348.291Z"/>
	<path fill="#3D2723" transform="scale(1.6 1.6)" d="M334.655 361.713C342.794 362.426 351.202 362.029 359.373 362.028L402.243 362.014C425.215 362.006 447.64 362.024 447.753 392.279L447.725 445.268C447.782 482.012 449.259 495.034 408.777 494.969L306.094 494.961L246.568 494.942C237.834 494.945 224.426 495.845 216.31 494.257C191.612 489.426 192.506 471.434 192.546 452.762L192.527 399.059C192.49 394.012 192.059 389.072 192.87 384.051C197.115 357.772 228.165 362.006 247.46 362.011L302.607 362.025C313.245 362.027 324.049 362.457 334.655 361.713Z"/>
	<path fill="#D8E9FE" transform="scale(1.6 1.6)" d="M234.5 372.962C250.965 373.453 267.529 373.099 284.004 373.099L373.983 373.088C385.615 373.085 424.865 369.944 432.671 378.547C438.265 384.713 436.21 402.624 436.206 411.415L436.224 446.645C436.252 471.823 439.423 485.972 406.094 483.751C391.381 484.85 376.38 484.052 361.632 484.053L246.217 484.049C237.203 484.059 227.908 484.549 218.968 483.313C200.743 480.793 204.246 458.671 203.975 445.59C203.73 433.734 203.932 421.843 203.916 409.983C203.874 379.127 201.543 373.509 234.5 372.962Z"/>
</svg>
